<?xml version="1.0" encoding="UTF-8"?>
<svg xmlns="http://www.w3.org/2000/svg" viewBox="96 160 1280 1280" width="32" height="32">
  <defs>
    <style>
      .cls-1 {
        fill: #fff;
      }

      .cls-1, .cls-2 {
        stroke: #fff;
        stroke-linecap: round;
        stroke-linejoin: round;
        stroke-width: 30px;
      }

      .cls-2 {
        fill: none;
      }
    </style>
  </defs>
  <path class="cls-1" d="M728.96,1079.99c-203.38,0-368.96-165.63-368.96-369.12,0-162.36,104.37-302.38,254.78-350.87-58.2,60.88-91.81,142.88-91.81,228.28,0,181.7,147.27,329.49,328.28,329.49,85.8,0,168.07-34.19,228.75-93.44-48.13,150.92-188.2,255.66-351.04,255.66h0Z"/>
  <line class="cls-2" x1="630.06" y1="613.84" x2="630.06" y2="645.78"/>
  <line class="cls-2" x1="1049.8" y1="613.84" x2="1049.8" y2="645.78"/>
  <line class="cls-2" x1="690.02" y1="539.99" x2="690.02" y2="719.63"/>
  <line class="cls-2" x1="749.98" y1="565.94" x2="749.98" y2="693.68"/>
  <line class="cls-2" x1="809.94" y1="613.84" x2="809.94" y2="645.78"/>
  <line class="cls-2" x1="868.14" y1="598.24" x2="868.14" y2="662.11"/>
  <line class="cls-2" x1="929.87" y1="540.36" x2="929.87" y2="720"/>
  <line class="cls-2" x1="989.83" y1="565.94" x2="989.83" y2="693.69"/>
</svg>